# Blender 3.1.0
# www.blender.org
o Skrin2Patra
v 0.007171 0.001965 -1.689848
v 0.007171 0.875689 -1.689848
v 0.312278 0.001965 -1.689848
v 0.312278 0.875689 -1.689848
v 0.007171 0.001965 -0.829545
v 0.007171 0.875689 -0.829545
v 0.312278 0.001965 -0.829545
v 0.312278 0.875689 -0.829545
v 0.007171 0.555524 -1.689848
v 0.312278 0.555524 -1.689848
v 0.312278 0.555524 -0.829545
v 0.007171 0.555524 -0.829545
v 0.312278 0.861909 -1.670506
v 0.312278 0.861909 -0.848887
v 0.312278 0.569304 -1.670506
v 0.312278 0.569304 -0.848887
v 0.019406 0.861909 -1.670506
v 0.019406 0.861909 -0.848887
v 0.019406 0.569304 -1.670506
v 0.019406 0.569304 -0.848887
v 0.312278 0.543031 -1.670432
v 0.312278 0.020356 -1.670432
v 0.312278 0.020356 -0.848961
v 0.312278 0.543031 -0.848961
v 0.312278 0.020356 -1.259696
v 0.312278 0.543031 -1.259696
v 0.323990 0.543031 -0.848961
v 0.323990 0.020356 -0.848961
v 0.323990 0.543031 -1.259696
v 0.323990 0.020356 -1.259696
v 0.325044 0.543031 -1.670432
v 0.325044 0.020356 -1.670432
v 0.330670 0.020356 -1.259696
v 0.330670 0.543031 -1.259696
vn -0.0000 -0.0000 -1.0000
vn 1.0000 -0.0000 -0.0000
vn -0.0000 -0.0000 1.0000
vn -1.0000 -0.0000 -0.0000
vn -0.0000 -1.0000 -0.0000
vn -0.0000 1.0000 -0.0000
vn 0.9999 -0.0000 -0.0137
vt 0.125000 0.750000
vt 0.375000 1.000000
vt 0.375000 0.000000
vt 0.625000 0.000000
vt 0.625000 1.000000
vt 0.875000 0.750000
vt 0.125000 0.500000
vt 0.375000 0.250000
vt 0.875000 0.500000
vt 0.625000 0.250000
vt 0.375000 0.750000
vt 0.625000 0.750000
vt 0.375000 0.500000
vt 0.625000 0.500000
vt 0.500000 1.000000
vt 0.500000 0.000000
vt 0.500000 0.250000
vt 0.500000 0.500000
vt 0.500000 0.750000
vt 0.625000 0.250000
vt 0.875000 0.500000
vt 0.625000 0.500000
vt 0.500000 0.250000
vt 0.500000 0.500000
vt 0.625000 0.250000
vt 0.875000 0.500000
vt 0.625000 0.500000
vt 0.500000 0.250000
vt 0.500000 0.500000
vt 0.500000 0.250000
vt 0.375000 0.250000
vt 0.125000 0.500000
vt 0.375000 0.500000
vt 0.500000 0.500000
vt 0.250000 0.500000
vt 0.375000 0.375000
vt 0.500000 0.375000
vt 0.500000 0.500000
vt 0.375000 0.500000
vt 0.500000 0.375000
vt 0.375000 0.375000
vt 0.250000 0.500000
vt 0.500000 0.250000
vt 0.375000 0.250000
vt 0.125000 0.500000
vt 0.250000 0.500000
vt 0.375000 0.375000
vt 0.500000 0.375000
s 0
f 9/16/1 2/4/1 4/10/1 10/17/1
f 4/9/2 8/14/2 14/22/2 13/21/2
f 11/18/3 8/14/3 6/12/3 12/19/3
f 12/19/4 6/12/4 2/5/4 9/15/4
f 3/7/5 7/13/5 5/11/5 1/1/5
f 8/14/6 4/9/6 2/6/6 6/12/6
f 5/11/4 12/19/4 9/15/4 1/2/4
f 7/13/3 11/18/3 12/19/3 5/11/3
f 7/13/2 3/7/2 22/32/2 25/35/2 23/33/2
f 1/3/1 9/16/1 10/17/1 3/8/1
f 15/23/3 13/20/3 17/25/3 19/28/3
f 8/14/2 11/18/2 16/24/2 14/22/2
f 10/17/2 4/10/2 13/20/2 15/23/2
f 11/18/2 10/17/2 15/23/2 16/24/2
f 19/28/2 17/25/2 18/27/2 20/29/2
f 14/22/1 16/24/1 20/29/1 18/27/1
f 13/21/5 14/22/5 18/27/5 17/26/5
f 16/24/6 15/23/6 19/28/6 20/29/6
f 24/34/3 23/33/3 28/39/3 27/38/3
f 10/17/2 11/18/2 24/34/2 26/37/2 21/30/2
f 3/8/2 10/17/2 21/30/2 22/31/2
f 11/18/2 7/13/2 23/33/2 24/34/2
f 22/31/1 21/30/1 31/43/1 32/44/1
f 30/41/2 29/40/2 27/38/2 28/39/2
f 26/37/6 24/34/6 27/38/6 29/40/6
f 25/36/1 26/37/1 29/40/1 30/41/1
f 23/33/5 25/35/5 30/42/5 28/39/5
f 32/44/7 31/43/7 34/48/7 33/47/7
f 21/30/6 26/37/6 34/48/6 31/43/6
f 25/35/5 22/32/5 32/45/5 33/46/5
f 26/37/3 25/36/3 33/47/3 34/48/3
