# Blender 3.1.0
# www.blender.org
o Floor
v 0.000000 0.000020 1.000000
v 4.550810 0.000020 1.000000
v 0.000000 0.000020 -1.691241
v 4.550810 0.000020 -1.691241
v 0.000000 0.000020 0.910000
v 0.000000 0.000020 -0.841249
v -0.390000 0.000020 0.910000
v -0.390000 0.000020 -0.841249
v 3.640708 0.000020 1.000000
v 4.460682 0.000020 1.000000
v 3.640708 0.000020 1.058986
v 4.460682 0.000020 1.058986
v -0.390000 0.000020 0.744450
v -0.390000 0.000020 -0.695956
v -0.589957 0.000020 0.744450
v -0.589957 0.000020 -0.695956
v 0.000000 -0.009980 1.000000
v 4.550810 -0.009980 1.000000
v 0.000000 -0.009980 -1.691241
v 4.550810 -0.009980 -1.691241
v 0.008944 -0.004452 0.910000
v 0.008944 -0.004452 -0.841249
v -0.389998 -0.009980 0.910000
v -0.390000 -0.009980 -0.841249
v 3.640708 -0.009980 1.000000
v 4.460682 -0.009980 1.000000
v 3.640708 -0.009980 1.058986
v 4.460682 -0.009980 1.058986
v -0.381056 -0.004452 0.744450
v -0.381056 -0.004452 -0.695956
v -0.589957 -0.009980 0.744450
v -0.589957 -0.009980 -0.695956
vn -0.0000 1.0000 -0.0000
vn -1.0000 -0.0000 -0.0000
vn -0.0000 -1.0000 -0.0000
vn -0.5257 0.8507 -0.0000
vn 0.0139 -0.9999 -0.0000
vn -0.5258 0.8506 -0.0000
vn 0.0265 -0.9997 -0.0000
vn 1.0000 -0.0000 -0.0000
vn -0.0000 -0.0000 -1.0000
vn -0.8506 -0.5257 0.0062
vn -0.8492 -0.5248 -0.0583
vn -0.0000 -0.0000 1.0000
vn -0.8501 -0.5254 0.0362
vn -0.8502 -0.5255 -0.0317
vt 0.000000 0.000000
vt 0.000000 0.000000
vt 0.000000 0.000000
vt 0.000000 0.000000
vt 0.000000 0.000000
vt 0.000000 0.000000
vt 0.000000 0.000000
vt 0.000000 0.000000
vt 0.000000 0.000000
vt 0.000000 0.000000
vt 0.000000 0.000000
vt 0.000000 0.000000
vt 0.000000 0.000000
vt 0.000000 0.000000
vt 0.000000 0.000000
vt 0.000000 0.000000
vt 0.000000 0.000000
vt 0.000000 0.000000
vt 0.000000 0.000000
vt 0.000000 0.000000
vt 0.000000 0.000000
vt 0.000000 0.000000
vt 0.000000 0.000000
vt 0.000000 0.000000
vt 0.000000 0.000000
vt 0.000000 0.000000
vt 0.000000 0.000000
vt 0.000000 0.000000
vt 0.000000 0.000000
vt 0.000000 0.000000
vt 0.000000 0.000000
vt 0.000000 0.000000
s 0
f 3/3/1 1/1/1 2/2/1 4/4/1
f 1/1/2 3/3/2 6/6/2 5/5/2
f 5/5/1 6/6/1 8/8/1 7/7/1
f 2/2/1 1/1/1 9/9/1 10/10/1
f 10/10/1 9/9/1 11/11/1 12/12/1
f 7/7/2 8/8/2 14/14/2 13/13/2
f 13/13/1 14/14/1 16/16/1 15/15/1
f 19/19/3 20/20/3 18/18/3 17/17/3
f 17/17/4 21/21/4 22/22/4 19/19/4
f 21/21/5 23/23/5 24/24/5 22/22/5
f 18/18/1 26/26/1 25/25/1 17/17/1
f 26/26/3 28/28/3 27/27/3 25/25/3
f 23/23/6 29/29/6 30/30/6 24/24/6
f 29/29/7 31/31/7 32/32/7 30/30/7
f 4/4/8 2/2/8 18/18/8 20/20/8
f 3/3/9 4/4/9 20/20/9 19/19/9
f 6/6/10 3/3/10 19/19/10 22/22/10
f 1/1/11 5/5/11 21/21/11 17/17/11
f 8/8/9 6/6/9 22/22/9 24/24/9
f 5/5/12 7/7/12 23/23/12 21/21/12
f 9/9/12 1/1/12 17/17/12 25/25/12
f 2/2/12 10/10/12 26/26/12 18/18/12
f 12/12/12 11/11/12 27/27/12 28/28/12
f 11/11/2 9/9/2 25/25/2 27/27/2
f 10/10/8 12/12/8 28/28/8 26/26/8
f 14/14/13 8/8/13 24/24/13 30/30/13
f 7/7/14 13/13/14 29/29/14 23/23/14
f 15/15/2 16/16/2 32/32/2 31/31/2
f 16/16/9 14/14/9 30/30/9 32/32/9
f 13/13/12 15/15/12 31/31/12 29/29/12
