# Blender 3.1.0
# www.blender.org
o Kallax
v 2.675464 -0.003450 -1.297381
v 2.675464 0.766969 -1.297381
v 2.675464 -0.003450 -1.686892
v 2.675464 0.766969 -1.686892
v 3.445883 -0.003450 -1.297381
v 3.445883 0.766969 -1.297381
v 3.445883 -0.003450 -1.686892
v 3.445883 0.766969 -1.686892
v 2.675464 -0.003450 -1.297381
v 2.675464 0.766969 -1.297381
v 3.445883 0.766969 -1.297381
v 3.445883 -0.003450 -1.297381
v 2.696239 0.017325 -1.297381
v 2.696239 0.746194 -1.297381
v 3.425108 0.746194 -1.297381
v 3.425108 0.017325 -1.297381
v 2.696476 0.745957 -1.686892
v 2.696476 0.017562 -1.686892
v 3.424871 0.017562 -1.686892
v 3.424871 0.745957 -1.686892
v 3.051213 0.012957 -1.334084
v 3.051213 0.751832 -1.334084
v 3.051213 0.012957 -1.683785
v 3.051213 0.751832 -1.683785
v 3.072634 0.012957 -1.334084
v 3.072634 0.751832 -1.334084
v 3.072634 0.012957 -1.683785
v 3.072634 0.751832 -1.683785
v 3.432300 0.368595 -1.332491
v 2.691546 0.368594 -1.332491
v 3.432300 0.368595 -1.683785
v 2.691546 0.368595 -1.683785
v 3.432300 0.390015 -1.332491
v 2.691546 0.390015 -1.332491
v 3.432300 0.390015 -1.683785
v 2.691546 0.390015 -1.683785
vn -1.0000 -0.0000 -0.0000
vn -0.0000 -0.0000 -1.0000
vn 1.0000 -0.0000 -0.0000
vn -0.0000 1.0000 -0.0000
vn -0.0000 -1.0000 -0.0000
vn -0.0000 -0.0000 1.0000
vn -1.0000 -0.0000 0.0006
vn -0.0000 -1.0000 0.0006
vn 1.0000 -0.0000 0.0006
vn -0.0000 1.0000 0.0006
vt 0.375000 0.000000
vt 0.125000 0.750000
vt 0.875000 0.750000
vt 0.625000 0.000000
vt 0.375000 0.250000
vt 0.125000 0.500000
vt 0.875000 0.500000
vt 0.625000 0.250000
vt 0.375000 0.750000
vt 0.625000 0.750000
vt 0.375000 0.500000
vt 0.625000 0.500000
vt 0.125000 0.750000
vt 0.375000 0.000000
vt 0.625000 0.000000
vt 0.875000 0.750000
vt 0.625000 0.750000
vt 0.375000 0.750000
vt 0.125000 0.750000
vt 0.375000 0.000000
vt 0.625000 0.000000
vt 0.875000 0.750000
vt 0.625000 0.750000
vt 0.375000 0.750000
vt 0.875000 0.500000
vt 0.625000 0.250000
vt 0.125000 0.500000
vt 0.375000 0.250000
vt 0.375000 0.500000
vt 0.625000 0.500000
vt 0.375000 0.000000
vt 0.375000 1.000000
vt 0.125000 0.750000
vt 0.625000 0.000000
vt 0.625000 1.000000
vt 0.875000 0.750000
vt 0.375000 0.250000
vt 0.125000 0.500000
vt 0.625000 0.250000
vt 0.875000 0.500000
vt 0.375000 0.750000
vt 0.625000 0.750000
vt 0.375000 0.500000
vt 0.625000 0.500000
vt 0.375000 0.000000
vt 0.375000 1.000000
vt 0.125000 0.750000
vt 0.625000 0.000000
vt 0.625000 1.000000
vt 0.875000 0.750000
vt 0.375000 0.250000
vt 0.125000 0.500000
vt 0.625000 0.250000
vt 0.875000 0.500000
vt 0.375000 0.750000
vt 0.625000 0.750000
vt 0.375000 0.500000
vt 0.625000 0.500000
s 0
f 1/1/1 2/4/1 4/8/1 3/5/1
f 4/7/2 8/12/2 20/30/2 17/25/2
f 7/11/3 8/12/3 6/10/3 5/9/3
f 6/10/4 2/3/4 10/16/4 11/17/4
f 3/6/5 7/11/5 5/9/5 1/2/5
f 8/12/4 4/7/4 2/3/4 6/10/4
f 12/18/6 11/17/6 15/23/6 16/24/6
f 5/9/4 6/10/4 11/17/4 12/18/4
f 2/4/4 1/1/4 9/14/4 10/15/4
f 1/2/4 5/9/4 12/18/4 9/13/4
f 9/13/6 12/18/6 16/24/6 13/19/6
f 10/15/6 9/14/6 13/20/6 14/21/6
f 11/17/6 10/16/6 14/22/6 15/23/6
f 16/24/7 15/23/7 20/30/7 19/29/7
f 3/5/2 4/8/2 17/26/2 18/28/2
f 8/12/2 7/11/2 19/29/2 20/30/2
f 7/11/2 3/6/2 18/27/2 19/29/2
f 15/23/8 14/22/8 17/25/8 20/30/8
f 13/20/9 18/28/9 17/26/9 14/22/9
f 13/20/10 16/24/10 19/29/10 18/28/10
f 21/31/1 22/34/1 24/39/1 23/37/1
f 23/37/2 24/39/2 28/44/2 27/43/2
f 27/43/3 28/44/3 26/42/3 25/41/3
f 25/41/6 26/42/6 22/35/6 21/32/6
f 23/38/5 27/43/5 25/41/5 21/33/5
f 28/44/4 24/40/4 22/36/4 26/42/4
f 29/45/5 30/48/5 32/53/5 31/51/5
f 31/51/2 32/53/2 36/58/2 35/57/2
f 35/57/4 36/58/4 34/56/4 33/55/4
f 33/55/6 34/56/6 30/49/6 29/46/6
f 31/52/3 35/57/3 33/55/3 29/47/3
f 36/58/1 32/54/1 30/50/1 34/56/1
