# Blender 3.1.0
# www.blender.org
o BackWall
v -0.382362 1.941615 0.900714
v -0.382362 -0.000735 0.900714
v -0.382362 1.941615 -0.839861
v -0.382362 -0.000735 -0.839861
v -0.382362 2.196235 0.364239
v -0.382362 2.196235 -0.303386
v -0.392362 1.941615 0.900714
v -0.392362 -0.000735 0.900714
v -0.392362 1.941615 -0.839861
v -0.392362 -0.000735 -0.839861
v -0.392362 2.196235 0.364239
v -0.392362 2.196235 -0.303386
vn 1.0000 -0.0000 -0.0000
vn -1.0000 -0.0000 -0.0000
vn -0.0000 -0.0000 1.0000
vn -0.0000 -1.0000 -0.0000
vn -0.0000 -0.0000 -1.0000
vn -0.0000 1.0000 -0.0000
vn -0.0000 0.9034 -0.4288
vn -0.0000 0.9034 0.4288
vt 0.000000 0.000000
vt 1.000000 0.000000
vt 0.000000 1.000000
vt 1.000000 1.000000
vt 0.000000 0.000000
vt 0.000000 1.000000
vt 0.000000 0.000000
vt 1.000000 0.000000
vt 0.000000 1.000000
vt 1.000000 1.000000
vt 0.000000 0.000000
vt 0.000000 1.000000
s 0
f 1/1/1 2/2/1 4/4/1 3/3/1
f 1/1/1 3/3/1 6/6/1 5/5/1
f 7/7/2 9/9/2 10/10/2 8/8/2
f 7/7/2 11/11/2 12/12/2 9/9/2
f 2/2/3 1/1/3 7/7/3 8/8/3
f 4/4/4 2/2/4 8/8/4 10/10/4
f 3/3/5 4/4/5 10/10/5 9/9/5
f 5/5/6 6/6/6 12/12/6 11/11/6
f 6/6/7 3/3/7 9/9/7 12/12/7
f 1/1/8 5/5/8 11/11/8 7/7/8
o SideWalls
v -0.389998 0.887804 -0.839009
v -0.000497 0.887804 -0.839009
v -0.389998 0.001698 -0.839009
v -0.000497 0.001698 -0.839009
v -0.389998 1.940661 -0.839009
v -0.000497 1.940661 -0.839009
v -0.388963 0.887804 -0.839009
v 1.846460 1.940661 -0.839009
v -0.389998 2.196236 -0.303421
v -0.000497 2.196236 -0.303421
v 2.186790 2.196236 -0.303421
v -0.389998 2.196236 0.364237
v -0.000497 2.196236 0.364237
v 2.186790 2.196236 0.364237
v -0.389998 0.887804 0.909999
v -0.000497 0.887804 0.909999
v -0.389998 0.001698 0.909999
v -0.000497 0.001698 0.909999
v -0.389998 1.940661 0.909999
v -0.000497 1.940661 0.909999
v 0.003141 0.887804 0.909999
v 1.846460 1.940661 0.909999
v -0.000497 0.887804 0.999661
v -0.000497 0.001698 0.999661
v 0.003141 0.887804 0.999661
v 1.846460 1.940661 0.999661
v 2.355979 2.298918 0.999661
v 2.355979 2.298918 0.910372
v 2.355979 2.298918 0.367463
v 2.355979 2.298918 -0.300254
v 2.355979 2.298918 -0.838435
v 2.355979 2.298918 -1.691282
v -0.000497 0.001698 -1.691548
v 0.003141 0.887804 -1.691548
v 1.846460 1.940661 -1.697375
v 4.542347 2.298918 0.999661
v 2.355979 0.000254 0.999661
v 4.542347 0.000254 0.999661
v 1.846460 0.000250 0.999661
v 3.635399 2.298918 0.999661
v 3.635399 0.000254 0.999661
v 4.463582 2.298918 0.999661
v 4.463582 0.000254 0.999661
v -0.389998 0.444751 0.909999
v -0.000497 0.444751 0.909999
v -0.000497 0.444751 0.999661
v 4.542347 1.987644 0.999661
v 2.355979 1.987644 0.999661
v 1.846460 0.970455 0.999661
v 3.635399 1.987644 0.999661
v 4.463582 1.987644 0.999661
v -0.386956 0.880880 -0.832465
v 0.007559 0.883122 -0.835379
v -0.389998 0.001698 -0.849009
v 0.006582 0.001684 -0.846072
v -0.389998 1.935324 -0.830552
v -0.000497 1.935325 -0.830551
v -0.388963 0.887804 -0.849009
v 1.850171 1.931701 -0.836570
v -0.389998 2.186483 -0.301213
v -0.000497 2.186483 -0.301213
v 2.190190 2.186867 -0.302609
v -0.389998 2.186475 0.362065
v -0.000497 2.186475 0.362065
v 2.190180 2.186863 0.363435
v -0.389998 0.887804 0.919999
v -0.003512 0.890819 0.919044
v -0.389998 0.001698 0.919999
v -0.007568 0.001698 0.917070
v -0.389998 1.932222 0.915365
v -0.000497 1.932222 0.915365
v 0.001199 0.895119 0.916536
v 1.836954 1.940727 0.906898
v -0.005648 0.892955 1.006511
v -0.007566 0.001698 1.006734
v 0.000575 0.897469 0.999661
v 1.842728 1.946537 1.006840
v 2.352944 2.303235 1.008156
v 2.350363 2.295498 0.902839
v 2.361387 2.290507 0.367369
v 2.361382 2.290504 -0.300160
v 2.361664 2.290692 -0.838341
v 2.361731 2.290738 -1.691282
v 0.009503 0.001678 -1.691526
v 0.011777 0.882763 -1.691529
v 1.851819 1.932218 -1.697369
v 4.542347 2.298918 1.009661
v 2.355979 0.000254 1.009661
v 4.542347 0.000254 1.009661
v 1.846460 0.000250 1.009661
v 3.635399 2.298918 1.009661
v 3.635399 0.000254 1.009661
v 4.463582 2.298918 1.009661
v 4.463582 0.000254 1.009661
v -0.389998 0.444751 0.919999
v -0.007568 0.444751 0.917070
v -0.007568 0.444751 1.006732
v 4.542347 1.987644 1.009661
v 2.355979 1.987644 1.009661
v 1.846460 0.970455 1.009661
v 3.635399 1.987644 1.009661
v 4.463582 1.987644 1.009661
vn -0.0000 0.9056 0.4241
vn -0.0000 0.9025 -0.4307
vn -0.0000 1.0000 -0.0000
vn -0.0000 -0.0000 -1.0000
vn -0.0000 -1.0000 -0.0000
vn 0.4960 -0.8683 -0.0000
vn 1.0000 -0.0000 -0.0000
vn 0.5752 -0.8180 -0.0000
vn -0.5618 0.8271 0.0185
vn -0.5188 0.8549 -0.0000
vn -0.5617 0.8272 -0.0189
vn -0.4956 0.8685 -0.0011
vn -0.5752 0.8180 -0.0000
vn -0.0000 -0.0000 1.0000
vn -1.0000 0.0021 -0.0021
vn 0.0013 -0.9099 -0.4147
vn 0.0001 -0.9029 0.4299
vn -0.0000 -0.9035 0.4287
vn 0.0002 -1.0000 -0.0000
vn 0.0077 -0.0000 1.0000
vn 0.0012 0.0040 1.0000
vn 0.0060 0.0011 1.0000
vn -0.0000 -0.9087 -0.4175
vn -0.6430 0.7653 -0.0305
vn -0.4948 0.8687 -0.0248
vn -0.9999 0.0067 -0.0121
vn -0.5705 0.8207 -0.0309
vn 0.5564 -0.8309 0.0021
vn 0.5179 -0.8555 -0.0000
vn 0.5609 -0.8277 0.0191
vn 0.4950 -0.8689 0.0016
vn 0.5748 -0.8183 0.0003
vn 0.0209 0.0060 -0.9998
vn -0.0174 -0.0112 0.9998
vn 0.0032 -0.0046 1.0000
vn -0.0058 0.0033 1.0000
vn -0.0018 0.0021 1.0000
vn 1.0000 -0.0019 0.0042
vn -0.0006 0.0024 1.0000
vn -0.0016 -0.0000 1.0000
vn -1.0000 -0.0000 -0.0000
vn 0.0051 -0.0022 1.0000
vn -0.0000 -1.0000 0.0008
vn 1.0000 0.0010 -0.0035
vn -1.0000 0.0012 -0.0000
vn 0.1950 -0.3451 0.9181
vn 0.5893 -0.0654 0.8052
vn 0.0985 0.9943 -0.0408
vn 0.9997 -0.0243 0.0103
vn 0.8413 0.5405 -0.0000
vn 0.8322 0.5544 0.0003
vn 0.8204 0.5718 -0.0000
vn -0.0021 -1.0000 -0.0000
vn 0.0021 -0.0000 -1.0000
vn 0.0083 0.0052 -1.0000
vn -0.0014 -0.0032 -1.0000
vn -0.3508 0.6154 -0.7058
vn -0.0008 -1.0000 -0.0003
vn 0.0018 0.9739 -0.2270
vt 0.000000 0.000000
vt 0.000000 0.000000
vt 0.000000 0.000000
vt 0.000000 0.000000
vt 1.000000 0.000000
vt 0.000000 0.000000
vt 1.000000 0.000000
vt 0.000000 0.000000
vt 0.000000 0.000000
vt 1.000000 0.000000
vt 1.000000 0.000000
vt 0.000000 0.000000
vt 1.000000 0.000000
vt 1.000000 0.000000
vt 0.000000 0.000000
vt 1.000000 0.000000
vt 0.000000 1.000000
vt 1.000000 1.000000
vt 0.000000 0.000000
vt 1.000000 0.000000
vt 1.000000 0.000000
vt 1.000000 0.000000
vt 1.000000 0.000000
vt 1.000000 1.000000
vt 1.000000 0.000000
vt 1.000000 0.000000
vt 0.000000 0.000000
vt 0.000000 0.000000
vt 0.000000 0.000000
vt 0.000000 0.000000
vt 0.000000 0.000000
vt 0.000000 0.000000
vt 0.000000 0.000000
vt 0.000000 0.000000
vt 0.000000 0.000000
vt 0.000000 0.000000
vt 0.000000 0.000000
vt 0.000000 0.000000
vt 0.000000 0.000000
vt 0.000000 0.000000
vt 0.000000 0.000000
vt 0.000000 0.000000
vt 0.000000 0.000000
vt 0.000000 0.500000
vt 1.000000 0.500000
vt 1.000000 0.500000
vt 0.000000 0.000000
vt 0.000000 0.000000
vt 0.500000 0.000000
vt 0.000000 0.000000
vt 0.000000 0.000000
vt 0.000000 0.000000
vt 0.000000 0.000000
vt 0.000000 0.000000
vt 0.000000 0.000000
vt 1.000000 0.000000
vt 0.000000 0.000000
vt 1.000000 0.000000
vt 0.000000 0.000000
vt 0.000000 0.000000
vt 1.000000 0.000000
vt 1.000000 0.000000
vt 0.000000 0.000000
vt 1.000000 0.000000
vt 1.000000 0.000000
vt 0.000000 0.000000
vt 1.000000 0.000000
vt 0.000000 1.000000
vt 1.000000 1.000000
vt 0.000000 0.000000
vt 1.000000 0.000000
vt 1.000000 0.000000
vt 1.000000 0.000000
vt 1.000000 0.000000
vt 1.000000 1.000000
vt 1.000000 0.000000
vt 1.000000 0.000000
vt 0.000000 0.000000
vt 0.000000 0.000000
vt 0.000000 0.000000
vt 0.000000 0.000000
vt 0.000000 0.000000
vt 0.000000 0.000000
vt 0.000000 0.000000
vt 0.000000 0.000000
vt 0.000000 0.000000
vt 0.000000 0.000000
vt 0.000000 0.000000
vt 0.000000 0.000000
vt 0.000000 0.000000
vt 0.000000 0.000000
vt 0.000000 0.000000
vt 0.000000 0.000000
vt 0.000000 0.000000
vt 0.000000 0.500000
vt 1.000000 0.500000
vt 1.000000 0.500000
vt 0.000000 0.000000
vt 0.000000 0.000000
vt 0.500000 0.000000
vt 0.000000 0.000000
vt 0.000000 0.000000
s 0
f 26/26/9 25/25/9 32/32/9 34/34/9
f 20/19/10 18/17/10 22/22/10 23/23/10
f 18/17/10 17/16/10 21/21/10 22/22/10
f 23/23/11 22/22/11 25/25/11 26/26/11
f 22/22/11 21/21/11 24/24/11 25/25/11
f 56/56/12 57/57/12 30/30/12 29/29/12
f 28/28/12 27/27/12 31/31/12 32/32/12
f 28/28/12 32/32/12 34/34/12 33/33/12
f 25/25/9 24/24/9 31/31/9 32/32/9
f 28/28/13 33/33/13 37/37/13 35/35/13
f 33/33/14 34/34/14 38/38/14 37/37/14
f 57/57/15 28/28/15 35/35/15 58/58/15
f 39/39/16 38/38/16 34/34/16 40/40/16
f 26/26/17 34/34/17 40/40/17 41/41/17
f 23/23/18 26/26/18 41/41/18 42/42/18
f 20/19/19 23/23/19 42/42/19 43/43/19
f 20/20/20 47/47/20 46/46/20 14/13/20
f 43/43/21 44/44/21 47/47/21 20/19/21
f 19/18/22 15/14/22 16/15/22 14/13/22
f 17/16/12 18/17/12 14/13/12 19/18/12
f 20/20/12 14/13/12 18/17/12
f 63/63/12 59/59/12 50/50/12 55/55/12
f 61/61/12 38/38/12 39/39/12 60/60/12
f 58/58/12 35/35/12 38/38/12 61/61/12
f 45/45/23 16/15/23 14/13/23 46/46/23
f 60/60/12 62/62/12 53/53/12 49/49/12
f 52/52/12 54/54/12 63/63/12 62/62/12
f 39/39/12 52/52/12 62/62/12 60/60/12
f 36/36/12 58/58/12 61/61/12 51/51/12
f 51/51/12 61/61/12 60/60/12 49/49/12
f 54/54/12 48/48/12 59/59/12 63/63/12
f 30/30/15 57/57/15 58/58/15 36/36/15
f 27/27/12 28/28/12 57/57/12 56/56/12
f 77/77/24 85/85/24 83/83/24 76/76/24
f 71/70/25 74/74/25 73/73/25 69/68/25
f 69/68/26 73/73/26 72/72/26 68/67/26
f 74/74/27 77/77/27 76/76/27 73/73/27
f 73/73/13 76/76/13 75/75/13 72/72/13
f 107/107/28 80/80/28 81/81/28 108/108/28
f 79/79/29 83/83/29 82/82/29 78/78/29
f 79/79/30 84/84/30 85/85/30 83/83/30
f 76/76/31 83/83/31 82/82/31 75/75/31
f 79/79/32 86/86/32 88/88/32 84/84/32
f 84/84/33 88/88/33 89/89/33 85/85/33
f 108/108/34 109/109/34 86/86/34 79/79/34
f 90/90/35 91/91/35 85/85/35 89/89/35
f 77/77/36 92/92/36 91/91/36 85/85/36
f 74/74/37 93/93/37 92/92/37 77/77/37
f 71/70/38 94/94/38 93/93/38 74/74/38
f 71/71/39 65/64/39 97/97/39 98/98/39
f 94/94/40 71/70/40 98/98/40 95/95/40
f 70/69/41 65/64/41 67/66/41 66/65/41
f 68/67/42 70/69/42 65/64/42 69/68/42
f 71/71/43 69/68/43 65/64/43
f 114/114/22 106/106/22 101/101/22 110/110/22
f 112/112/44 111/111/44 90/90/44 89/89/44
f 109/109/45 112/112/45 89/89/45 86/86/45
f 96/96/46 97/97/46 65/64/46 67/66/46
f 111/111/22 100/100/22 104/104/22 113/113/22
f 103/103/22 113/113/22 114/114/22 105/105/22
f 90/90/47 111/111/47 113/113/47 103/103/47
f 87/87/48 102/102/48 112/112/48 109/109/48
f 102/102/22 100/100/22 111/111/22 112/112/22
f 105/105/22 114/114/22 110/110/22 99/99/22
f 81/81/49 87/87/49 109/109/49 108/108/49
f 78/78/50 107/107/50 108/108/50 79/79/50
f 16/15/51 15/14/51 66/65/51 67/66/51
f 17/16/52 19/18/52 70/69/52 68/67/52
f 15/14/53 19/18/53 70/69/53 66/65/53
f 21/21/49 17/16/49 68/67/49 72/72/49
f 24/24/49 21/21/49 72/72/49 75/75/49
f 27/27/49 56/56/49 107/107/49 78/78/49
f 29/29/13 30/30/13 81/81/13 80/80/13
f 31/31/49 27/27/49 78/78/49 82/82/49
f 31/31/49 24/24/49 75/75/49 82/82/49
f 37/37/54 38/38/54 89/89/54 88/88/54
f 35/35/55 37/37/55 88/88/55 86/86/55
f 30/30/13 36/36/13 87/87/13 81/81/13
f 39/39/56 40/40/56 91/91/56 90/90/56
f 41/41/57 40/40/57 91/91/57 92/92/57
f 42/42/58 41/41/58 92/92/58 93/93/58
f 43/43/59 42/42/59 93/93/59 94/94/59
f 44/44/60 43/43/60 94/94/60 95/95/60
f 16/15/61 45/45/61 96/96/61 67/66/61
f 45/45/62 46/46/62 97/97/62 96/96/62
f 47/47/63 44/44/63 95/95/63 98/98/63
f 46/46/64 47/47/64 98/98/64 97/97/64
f 48/48/11 54/54/11 105/105/11 99/99/11
f 55/55/13 50/50/13 101/101/13 106/106/13
f 50/50/15 59/59/15 110/110/15 101/101/15
f 51/51/13 49/49/13 100/100/13 102/102/13
f 38/38/65 35/35/65 86/86/65 89/89/65
f 36/36/66 51/51/66 102/102/66 87/87/66
f 52/52/67 39/39/67 90/90/67 103/103/67
f 49/49/13 53/53/13 104/104/13 100/100/13
f 53/53/15 62/62/15 113/113/15 104/104/15
f 54/54/11 52/52/11 103/103/11 105/105/11
f 63/63/49 55/55/49 106/106/49 114/114/49
f 56/56/49 29/29/49 80/80/49 107/107/49
f 59/59/15 48/48/15 99/99/15 110/110/15
f 62/62/13 63/63/13 114/114/13 113/113/13
l 15 13
l 13 17
l 66 64
l 64 68
o SideWallsUp
v 2.355979 2.298918 0.999661
v 2.355979 2.298918 0.910372
v 2.355979 2.298918 0.367463
v 2.355979 2.298918 -0.300254
v 2.355979 2.298918 -0.838435
v 2.355979 2.298918 -1.691282
v -0.000497 0.001698 -1.691548
v 0.003141 0.887804 -1.691548
v 1.846460 1.940661 -1.697375
v 4.542347 2.298918 0.999661
v 4.542347 2.298918 -1.691282
v 4.542347 2.298918 -0.838435
v 4.533368 2.298918 -0.300254
v 4.551327 2.298918 0.367463
v 4.542347 2.298918 0.910372
v 4.542347 0.001813 -1.691282
v 2.324480 0.000641 -1.691282
v 1.846460 0.000858 -1.697375
v 2.355979 2.308918 0.999661
v 2.355979 2.308918 0.910372
v 2.355979 2.308918 0.367463
v 2.355979 2.308918 -0.300254
v 2.355979 2.308918 -0.838435
v 2.355940 2.304195 -1.682787
v -0.000465 0.001698 -1.681548
v 0.003172 0.887804 -1.681548
v 1.846387 1.940661 -1.687375
v 4.542347 2.308918 0.999661
v 4.542347 2.305989 -1.684211
v 4.542347 2.308918 -0.838435
v 4.533368 2.308918 -0.300254
v 4.551327 2.308918 0.367463
v 4.542347 2.308918 0.910372
v 4.542347 0.001813 -1.681282
v 2.324417 0.000641 -1.681282
v 1.846414 0.000858 -1.687375
vn -0.0000 -1.0000 -0.0000
vn -0.0032 -0.0000 -1.0000
vn 0.0124 -0.0001 -0.9999
vn -0.0000 -0.0000 -1.0000
vn -0.0000 1.0000 -0.0000
vn -0.0004 1.0000 -0.0045
vn 0.0032 -0.0000 1.0000
vn -0.0110 0.0004 0.9999
vn 0.0003 0.0010 1.0000
vn -1.0000 -0.0000 -0.0000
vn -1.0000 -0.0026 -0.0000
vn -1.0000 0.0041 0.0032
vn -0.5608 0.7952 -0.2303
vn -0.4960 0.8683 -0.0011
vn -0.0000 -0.0000 1.0000
vn 1.0000 -0.0000 -0.0000
vn 0.9999 -0.0000 0.0165
vn 0.9996 -0.0000 -0.0269
vn 0.9999 -0.0000 0.0167
vn -0.0005 -1.0000 -0.0000
vn 0.0005 -1.0000 -0.0000
vt 0.000000 0.000000
vt 0.000000 0.000000
vt 0.000000 0.000000
vt 0.000000 0.000000
vt 0.000000 0.000000
vt 0.000000 0.000000
vt 0.000000 0.000000
vt 0.000000 0.000000
vt 0.000000 0.000000
vt 0.000000 0.000000
vt 0.000000 0.000000
vt 0.000000 0.000000
vt 0.000000 0.000000
vt 0.000000 0.000000
vt 0.000000 0.000000
vt 0.000000 0.000000
vt 0.000000 0.000000
vt 0.000000 0.000000
vt 0.000000 0.000000
vt 0.000000 0.000000
vt 0.000000 0.000000
vt 0.000000 0.000000
vt 0.000000 0.000000
vt 0.000000 0.000000
vt 0.000000 0.000000
vt 0.000000 0.000000
vt 0.000000 0.000000
vt 0.000000 0.000000
vt 0.000000 0.000000
vt 0.000000 0.000000
vt 0.000000 0.000000
vt 0.000000 0.000000
vt 0.000000 0.000000
vt 0.000000 0.000000
vt 0.000000 0.000000
vt 0.000000 0.000000
s 0
f 116/116/68 129/129/68 124/124/68 115/115/68
f 128/128/68 129/129/68 116/116/68 117/117/68
f 127/127/68 128/128/68 117/117/68 118/118/68
f 126/126/68 127/127/68 118/118/68 119/119/68
f 125/125/68 126/126/68 119/119/68 120/120/68
f 132/132/69 121/121/69 122/122/69 123/123/69
f 132/132/70 123/123/70 120/120/70 131/131/70
f 130/130/71 131/131/71 120/120/71 125/125/71
f 134/134/72 133/133/72 142/142/72 147/147/72
f 146/146/72 135/135/72 134/134/72 147/147/72
f 145/145/72 136/136/72 135/135/72 146/146/72
f 144/144/72 137/137/72 136/136/72 145/145/72
f 143/143/73 138/138/73 137/137/73 144/144/73
f 150/150/74 141/141/74 140/140/74 139/139/74
f 150/150/75 149/149/75 138/138/75 141/141/75
f 148/148/76 143/143/76 138/138/76 149/149/76
f 116/116/77 115/115/77 133/133/77 134/134/77
f 117/117/77 116/116/77 134/134/77 135/135/77
f 118/118/77 117/117/77 135/135/77 136/136/77
f 119/119/77 118/118/77 136/136/77 137/137/77
f 120/120/78 119/119/78 137/137/78 138/138/78
f 122/122/79 121/121/79 139/139/79 140/140/79
f 120/120/80 123/123/80 141/141/80 138/138/80
f 123/123/81 122/122/81 140/140/81 141/141/81
f 115/115/82 124/124/82 142/142/82 133/133/82
f 124/124/83 129/129/83 147/147/83 142/142/83
f 129/129/84 128/128/84 146/146/84 147/147/84
f 128/128/85 127/127/85 145/145/85 146/146/85
f 127/127/86 126/126/86 144/144/86 145/145/86
f 126/126/83 125/125/83 143/143/83 144/144/83
f 130/130/83 125/125/83 143/143/83 148/148/83
f 121/121/87 132/132/87 150/150/87 139/139/87
f 132/132/87 131/131/87 149/149/87 150/150/87
f 131/131/88 130/130/88 148/148/88 149/149/88
o Wall
v 4.521496 -0.015218 1.059657
v 4.521496 2.367034 1.059657
v 4.521496 -0.015218 -1.694289
v 4.521496 2.367034 -1.694289
v 4.583013 -0.015218 1.059657
v 4.583013 2.367034 1.059657
v 4.583013 -0.015218 -1.694289
v 4.583013 2.367034 -1.694289
vn -0.0308 -0.0000 -0.0000
vn -0.0000 -0.0000 -1.3770
vn 0.0308 -0.0000 -0.0000
vn -0.0000 -0.0000 1.3770
vn -0.0000 -1.1911 -0.0000
vn -0.0000 1.1911 -0.0000
vt 0.375000 0.000000
vt 0.375000 1.000000
vt 0.125000 0.750000
vt 0.625000 0.000000
vt 0.625000 1.000000
vt 0.875000 0.750000
vt 0.375000 0.250000
vt 0.125000 0.500000
vt 0.625000 0.250000
vt 0.875000 0.500000
vt 0.375000 0.750000
vt 0.625000 0.750000
vt 0.375000 0.500000
vt 0.625000 0.500000
s 0
f 151/151/89 152/154/89 154/159/89 153/157/89
f 153/157/90 154/159/90 158/164/90 157/163/90
f 157/163/91 158/164/91 156/162/91 155/161/91
f 155/161/92 156/162/92 152/155/92 151/152/92
f 153/158/93 157/163/93 155/161/93 151/153/93
f 158/164/94 154/160/94 152/156/94 156/162/94
